<svg xmlns="http://www.w3.org/2000/svg" viewBox="0 0 32 32" width="32" height="32">
  <!-- 배경 원형 -->
  <circle cx="16" cy="16" r="15" fill="#0f172a" stroke="#334155" stroke-width="2"/>
  
  <!-- 메인 기어 -->
  <g transform="translate(16,16)">
    <!-- 기어 톱니 -->
    <path d="M-1,-8 L1,-8 L2,-6 L-2,-6 Z" fill="#06b6d4"/>
    <path d="M-1,-8 L1,-8 L2,-6 L-2,-6 Z" fill="#06b6d4" transform="rotate(45)"/>
    <path d="M-1,-8 L1,-8 L2,-6 L-2,-6 Z" fill="#06b6d4" transform="rotate(90)"/>
    <path d="M-1,-8 L1,-8 L2,-6 L-2,-6 Z" fill="#06b6d4" transform="rotate(135)"/>
    <path d="M-1,-8 L1,-8 L2,-6 L-2,-6 Z" fill="#06b6d4" transform="rotate(180)"/>
    <path d="M-1,-8 L1,-8 L2,-6 L-2,-6 Z" fill="#06b6d4" transform="rotate(225)"/>
    <path d="M-1,-8 L1,-8 L2,-6 L-2,-6 Z" fill="#06b6d4" transform="rotate(270)"/>
    <path d="M-1,-8 L1,-8 L2,-6 L-2,-6 Z" fill="#06b6d4" transform="rotate(315)"/>
    
    <!-- 기어 중심부 -->
    <circle cx="0" cy="0" r="5" fill="#0891b2"/>
    <circle cx="0" cy="0" r="2" fill="#0f172a"/>
  </g>
  
  <!-- 작은 기어 (우상단) -->
  <g transform="translate(23,9)">
    <path d="M-0.5,-4 L0.5,-4 L1,-3 L-1,-3 Z" fill="#f59e0b"/>
    <path d="M-0.5,-4 L0.5,-4 L1,-3 L-1,-3 Z" fill="#f59e0b" transform="rotate(60)"/>
    <path d="M-0.5,-4 L0.5,-4 L1,-3 L-1,-3 Z" fill="#f59e0b" transform="rotate(120)"/>
    <path d="M-0.5,-4 L0.5,-4 L1,-3 L-1,-3 Z" fill="#f59e0b" transform="rotate(180)"/>
    <path d="M-0.5,-4 L0.5,-4 L1,-3 L-1,-3 Z" fill="#f59e0b" transform="rotate(240)"/>
    <path d="M-0.5,-4 L0.5,-4 L1,-3 L-1,-3 Z" fill="#f59e0b" transform="rotate(300)"/>
    <circle cx="0" cy="0" r="2.5" fill="#d97706"/>
    <circle cx="0" cy="0" r="1" fill="#0f172a"/>
  </g>
  
  <!-- 렌치 아이콘 (좌하단) -->
  <g transform="translate(8,24) rotate(-45)">
    <rect x="-0.5" y="-4" width="1" height="6" fill="#ef4444"/>
    <rect x="-1.5" y="-4" width="3" height="1.5" fill="#ef4444"/>
    <circle cx="0" cy="-3" r="0.5" fill="#0f172a"/>
  </g>
  
  <!-- 스크루드라이버 아이콘 (우하단) -->
  <g transform="translate(24,24) rotate(45)">
    <rect x="-0.3" y="-4" width="0.6" height="5" fill="#10b981"/>
    <rect x="-0.8" y="-4.5" width="1.6" height="1" fill="#059669"/>
  </g>
</svg> 