<svg xmlns="http://www.w3.org/2000/svg" viewBox="0 0 192 192" width="192" height="192">
  <!-- 배경 그라데이션 -->
  <defs>
    <radialGradient id="bgGrad" cx="50%" cy="30%" r="70%">
      <stop offset="0%" style="stop-color:#1e293b;stop-opacity:1" />
      <stop offset="100%" style="stop-color:#0f172a;stop-opacity:1" />
    </radialGradient>
    <linearGradient id="gearGrad" x1="0%" y1="0%" x2="100%" y2="100%">
      <stop offset="0%" style="stop-color:#0891b2;stop-opacity:1" />
      <stop offset="100%" style="stop-color:#06b6d4;stop-opacity:1" />
    </linearGradient>
  </defs>
  
  <!-- 배경 원형 -->
  <circle cx="96" cy="96" r="90" fill="url(#bgGrad)" stroke="#334155" stroke-width="4"/>
  
  <!-- 메인 기어 -->
  <g transform="translate(96,96)">
    <!-- 기어 톱니 (12개) -->
    <g fill="url(#gearGrad)">
      <path d="M-6,-48 L6,-48 L8,-36 L-8,-36 Z"/>
      <path d="M-6,-48 L6,-48 L8,-36 L-8,-36 Z" transform="rotate(30)"/>
      <path d="M-6,-48 L6,-48 L8,-36 L-8,-36 Z" transform="rotate(60)"/>
      <path d="M-6,-48 L6,-48 L8,-36 L-8,-36 Z" transform="rotate(90)"/>
      <path d="M-6,-48 L6,-48 L8,-36 L-8,-36 Z" transform="rotate(120)"/>
      <path d="M-6,-48 L6,-48 L8,-36 L-8,-36 Z" transform="rotate(150)"/>
      <path d="M-6,-48 L6,-48 L8,-36 L-8,-36 Z" transform="rotate(180)"/>
      <path d="M-6,-48 L6,-48 L8,-36 L-8,-36 Z" transform="rotate(210)"/>
      <path d="M-6,-48 L6,-48 L8,-36 L-8,-36 Z" transform="rotate(240)"/>
      <path d="M-6,-48 L6,-48 L8,-36 L-8,-36 Z" transform="rotate(270)"/>
      <path d="M-6,-48 L6,-48 L8,-36 L-8,-36 Z" transform="rotate(300)"/>
      <path d="M-6,-48 L6,-48 L8,-36 L-8,-36 Z" transform="rotate(330)"/>
    </g>
    
    <!-- 기어 중심부 -->
    <circle cx="0" cy="0" r="30" fill="#0891b2"/>
    <circle cx="0" cy="0" r="12" fill="#0f172a"/>
    
    <!-- 중심 볼트 -->
    <circle cx="0" cy="0" r="4" fill="#64748b"/>
  </g>
  
  <!-- 작은 기어 (우상단) -->
  <g transform="translate(140,52)">
    <g fill="#f59e0b">
      <path d="M-3,-24 L3,-24 L4,-18 L-4,-18 Z"/>
      <path d="M-3,-24 L3,-24 L4,-18 L-4,-18 Z" transform="rotate(60)"/>
      <path d="M-3,-24 L3,-24 L4,-18 L-4,-18 Z" transform="rotate(120)"/>
      <path d="M-3,-24 L3,-24 L4,-18 L-4,-18 Z" transform="rotate(180)"/>
      <path d="M-3,-24 L3,-24 L4,-18 L-4,-18 Z" transform="rotate(240)"/>
      <path d="M-3,-24 L3,-24 L4,-18 L-4,-18 Z" transform="rotate(300)"/>
    </g>
    <circle cx="0" cy="0" r="15" fill="#d97706"/>
    <circle cx="0" cy="0" r="6" fill="#0f172a"/>
  </g>
  
  <!-- 렌치 (좌하단) -->
  <g transform="translate(52,140) rotate(-45)">
    <rect x="-3" y="-24" width="6" height="36" fill="#ef4444" rx="2"/>
    <rect x="-9" y="-24" width="18" height="9" fill="#ef4444" rx="3"/>
    <circle cx="0" cy="-18" r="3" fill="#0f172a"/>
  </g>
  
  <!-- 스크루드라이버 (우하단) -->
  <g transform="translate(140,140) rotate(45)">
    <rect x="-2" y="-24" width="4" height="30" fill="#10b981" rx="1"/>
    <rect x="-6" y="-27" width="12" height="6" fill="#059669" rx="2"/>
  </g>
  
  <!-- 장식적 요소들 -->
  <circle cx="48" cy="48" r="3" fill="#64748b" opacity="0.6"/>
  <circle cx="144" cy="144" r="2" fill="#64748b" opacity="0.4"/>
  <rect x="42" y="146" width="8" height="2" fill="#64748b" opacity="0.3" rx="1"/>
</svg> 